<?xml version="1.0" encoding="UTF-8"?>
<svg xmlns="http://www.w3.org/2000/svg" xmlns:xlink="http://www.w3.org/1999/xlink" width="40pt" height="40pt" viewBox="0 0 40 40" version="1.1">
<g id="surface1235990">
<path style=" stroke:none;fill-rule:nonzero;fill:rgb(80%,80%,80%);fill-opacity:1;" d="M 20 38.398438 C 9.839844 38.398438 1.601562 30.160156 1.601562 20 C 1.601562 9.839844 9.839844 1.601562 20 1.601562 C 30.160156 1.601562 38.398438 9.839844 38.398438 20 C 38.398438 30.160156 30.160156 38.398438 20 38.398438 Z M 20 38.398438 "/>
<path style=" stroke:none;fill-rule:nonzero;fill:rgb(0%,0%,0%);fill-opacity:1;" d="M 5.554688 9.601562 L 5.554688 30.398438 L 34.445312 30.398438 L 34.445312 9.601562 Z M 6.710938 10.753906 L 33.289062 10.753906 L 33.289062 29.246094 L 6.710938 29.246094 Z M 7.867188 13.597656 L 7.867188 14.960938 L 20 21.835938 L 32.132812 14.960938 L 32.132812 13.597656 L 20 20.472656 Z M 7.867188 13.597656 "/>
</g>
</svg>
