<svg xmlns="http://www.w3.org/2000/svg" xmlns:xlink="http://www.w3.org/1999/xlink" width="60" height="60" version="1.1" viewBox="0 0 45 45"><g id="surface1235849"><path style="stroke:none;fill-rule:nonzero;fill:#ccc;fill-opacity:1" d="M 22.5 43.199219 C 11.066406 43.199219 1.800781 33.933594 1.800781 22.5 C 1.800781 11.066406 11.066406 1.800781 22.5 1.800781 C 33.933594 1.800781 43.199219 11.066406 43.199219 22.5 C 43.199219 33.933594 33.933594 43.199219 22.5 43.199219 Z M 22.5 43.199219"/><path style="stroke:none;fill-rule:nonzero;fill:#000;fill-opacity:1" d="M 6.25 10.800781 L 6.25 34.199219 L 38.75 34.199219 L 38.75 10.800781 Z M 7.550781 12.101562 L 37.449219 12.101562 L 37.449219 32.898438 L 7.550781 32.898438 Z M 8.851562 15.296875 L 8.851562 16.832031 L 22.5 24.566406 L 36.148438 16.832031 L 36.148438 15.296875 L 22.5 23.03125 Z M 8.851562 15.296875"/></g></svg>